REM DIRINDEX 1\2,1\3
REM DIRNAME cjc039,folder01,folder02
TITLE ""
FILE "1881-1900.mp3" MP3
  TRACK 01 AUDIO
    TITLE "0:"
    INDEX 01 00:00:00
  TRACK 02 AUDIO
    TITLE "2:cjc039_2761"
    INDEX 01 00:00:25
  TRACK 03 AUDIO
    TITLE "0:"
    INDEX 01 00:01:13
  TRACK 04 AUDIO
    TITLE "3:cjc039_2762"
    INDEX 01 00:01:68
  TRACK 05 AUDIO
    TITLE "0:"
    INDEX 01 00:05:59
  TRACK 06 AUDIO
    TITLE "2:cjc039_2763"
    INDEX 01 00:07:37
  TRACK 07 AUDIO
    TITLE "0:"
    INDEX 01 00:08:50
  TRACK 08 AUDIO
    TITLE "3:cjc039_2764"
    INDEX 01 00:09:26
  TRACK 09 AUDIO
    TITLE "0:"
    INDEX 01 00:12:40
  TRACK 10 AUDIO
    TITLE "2:cjc039_2765"
    INDEX 01 00:14:19
  TRACK 11 AUDIO
    TITLE "0:"
    INDEX 01 00:15:15
  TRACK 12 AUDIO
    TITLE "3:cjc039_2766"
    INDEX 01 00:15:68
  TRACK 13 AUDIO
    TITLE "0:"
    INDEX 01 00:18:31
  TRACK 14 AUDIO
    TITLE "2:cjc039_2767"
    INDEX 01 00:20:10
  TRACK 15 AUDIO
    TITLE "0:"
    INDEX 01 00:21:33
  TRACK 16 AUDIO
    TITLE "3:cjc039_2768"
    INDEX 01 00:22:13
  TRACK 17 AUDIO
    TITLE "0:"
    INDEX 01 00:25:68
  TRACK 18 AUDIO
    TITLE "2:cjc039_2769"
    INDEX 01 00:27:43
  TRACK 19 AUDIO
    TITLE "0:"
    INDEX 01 00:28:43
  TRACK 20 AUDIO
    TITLE "3:cjc039_2770"
    INDEX 01 00:29:25
  TRACK 21 AUDIO
    TITLE "0:"
    INDEX 01 00:31:61
  TRACK 22 AUDIO
    TITLE "2:cjc039_2771"
    INDEX 01 00:33:40
  TRACK 23 AUDIO
    TITLE "0:"
    INDEX 01 00:34:59
  TRACK 24 AUDIO
    TITLE "3:cjc039_2772"
    INDEX 01 00:35:37
  TRACK 25 AUDIO
    TITLE "0:"
    INDEX 01 00:38:53
  TRACK 26 AUDIO
    TITLE "2:cjc039_2773"
    INDEX 01 00:40:26
  TRACK 27 AUDIO
    TITLE "0:"
    INDEX 01 00:41:30
  TRACK 28 AUDIO
    TITLE "3:cjc039_2774"
    INDEX 01 00:42:08
  TRACK 29 AUDIO
    TITLE "0:"
    INDEX 01 00:45:08
  TRACK 30 AUDIO
    TITLE "2:cjc039_2775"
    INDEX 01 00:46:60
  TRACK 31 AUDIO
    TITLE "0:"
    INDEX 01 00:48:20
  TRACK 32 AUDIO
    TITLE "3:cjc039_2776"
    INDEX 01 00:48:73
  TRACK 33 AUDIO
    TITLE "0:"
    INDEX 01 00:52:53
  TRACK 34 AUDIO
    TITLE "2:cjc039_2777"
    INDEX 01 00:54:29
  TRACK 35 AUDIO
    TITLE "0:"
    INDEX 01 00:55:30
  TRACK 36 AUDIO
    TITLE "3:cjc039_2778"
    INDEX 01 00:56:04
  TRACK 37 AUDIO
    TITLE "0:"
    INDEX 01 00:58:73
  TRACK 38 AUDIO
    TITLE "2:cjc039_2779"
    INDEX 01 01:00:55
  TRACK 39 AUDIO
    TITLE "0:"
    INDEX 01 01:02:10
  TRACK 40 AUDIO
    TITLE "3:cjc039_2780"
    INDEX 01 01:02:59
  TRACK 41 AUDIO
    TITLE "0:"
    INDEX 01 01:06:14
  TRACK 42 AUDIO
    TITLE "2:cjc039_2781"
    INDEX 01 01:07:63
  TRACK 43 AUDIO
    TITLE "0:"
    INDEX 01 01:08:66
  TRACK 44 AUDIO
    TITLE "3:cjc039_2782"
    INDEX 01 01:09:48
  TRACK 45 AUDIO
    TITLE "0:"
    INDEX 01 01:12:36
  TRACK 46 AUDIO
    TITLE "2:cjc039_2783"
    INDEX 01 01:14:14
  TRACK 47 AUDIO
    TITLE "0:"
    INDEX 01 01:15:33
  TRACK 48 AUDIO
    TITLE "3:cjc039_2784"
    INDEX 01 01:16:11
  TRACK 49 AUDIO
    TITLE "0:"
    INDEX 01 01:19:28
  TRACK 50 AUDIO
    TITLE "2:cjc039_2785"
    INDEX 01 01:21:04
  TRACK 51 AUDIO
    TITLE "0:"
    INDEX 01 01:22:17
  TRACK 52 AUDIO
    TITLE "3:cjc039_2786"
    INDEX 01 01:22:68
  TRACK 53 AUDIO
    TITLE "0:"
    INDEX 01 01:26:32
  TRACK 54 AUDIO
    TITLE "2:cjc039_2787"
    INDEX 01 01:28:10
  TRACK 55 AUDIO
    TITLE "0:"
    INDEX 01 01:29:45
  TRACK 56 AUDIO
    TITLE "3:cjc039_2788"
    INDEX 01 01:30:18
  TRACK 57 AUDIO
    TITLE "0:"
    INDEX 01 01:34:14
  TRACK 58 AUDIO
    TITLE "2:cjc039_2789"
    INDEX 01 01:35:65
  TRACK 59 AUDIO
    TITLE "0:"
    INDEX 01 01:37:05
  TRACK 60 AUDIO
    TITLE "3:cjc039_2790"
    INDEX 01 01:37:58
  TRACK 61 AUDIO
    TITLE "0:"
    INDEX 01 01:41:20
  TRACK 62 AUDIO
    TITLE "2:cjc039_2791"
    INDEX 01 01:43:00
  TRACK 63 AUDIO
    TITLE "0:"
    INDEX 01 01:44:52
  TRACK 64 AUDIO
    TITLE "3:cjc039_2792"
    INDEX 01 01:45:32
  TRACK 65 AUDIO
    TITLE "0:"
    INDEX 01 01:49:69
  TRACK 66 AUDIO
    TITLE "2:cjc039_2793"
    INDEX 01 01:51:46
  TRACK 67 AUDIO
    TITLE "0:"
    INDEX 01 01:52:48
  TRACK 68 AUDIO
    TITLE "3:cjc039_2794"
    INDEX 01 01:53:27
  TRACK 69 AUDIO
    TITLE "0:"
    INDEX 01 01:56:16
  TRACK 70 AUDIO
    TITLE "2:cjc039_2795"
    INDEX 01 01:57:64
  TRACK 71 AUDIO
    TITLE "0:"
    INDEX 01 01:59:14
  TRACK 72 AUDIO
    TITLE "3:cjc039_2796"
    INDEX 01 01:59:63
  TRACK 73 AUDIO
    TITLE "0:"
    INDEX 01 02:03:32
  TRACK 74 AUDIO
    TITLE "2:cjc039_2797"
    INDEX 01 02:05:11
  TRACK 75 AUDIO
    TITLE "0:"
    INDEX 01 02:06:08
  TRACK 76 AUDIO
    TITLE "3:cjc039_2798"
    INDEX 01 02:06:63
  TRACK 77 AUDIO
    TITLE "0:"
    INDEX 01 02:09:46
  TRACK 78 AUDIO
    TITLE "2:cjc039_2799"
    INDEX 01 02:11:21
  TRACK 79 AUDIO
    TITLE "0:"
    INDEX 01 02:12:29
  TRACK 80 AUDIO
    TITLE "3:cjc039_2800"
    INDEX 01 02:13:07
  TRACK 81 AUDIO
    TITLE "0:"
    INDEX 01 02:16:03
